<?xml version="1.0" encoding="utf-8"?>
<!-- Generator: Adobe Illustrator 18.1.1, SVG Export Plug-In . SVG Version: 6.00 Build 0)  -->
<svg version="1.1" xmlns="http://www.w3.org/2000/svg" xmlns:xlink="http://www.w3.org/1999/xlink" x="0px" y="0px"
	 viewBox="0 0 72 72" enable-background="new 0 0 72 72" xml:space="preserve">
<g id="Layer_1" display="none">
	<polygon display="inline" fill="#FFFFFF" points="34.4,29.1 34.4,57.9 44.6,58.7 51.6,57.2 51.6,29.7 44.8,25.6 	"/>
	<polygon display="inline" fill="#FFFFFF" points="-26,29.1 -26,57.9 -15.8,58.7 -8.8,57.2 -8.8,29.7 -15.5,25.6 	"/>
	<g display="inline">
		<line fill="#FFFFFF" x1="34.4" y1="10.6" x2="34.4" y2="56.8"/>
		<rect x="33.5" y="10.6" width="1.8" height="46.2"/>
	</g>
	<polygon display="inline" points="44.4,65.4 44.2,65.4 11.6,62.1 11.8,60.3 44.2,63.6 60.1,59.8 60.5,61.5 	"/>
</g>
<g id="final">
	<path d="M47.2,21V9.5L34.4,1.6L14.6,8.2v52.6l18.3,1.5v0.2l13.7,1.1l9.5-2.1v-35L47.2,21z M33,25.5l-0.1,34.6l-16.1-1.3V9.7L33,4.3
		V25.5z M45.7,61.3L35,60.5V27.1l10.6-3.5V61.3z"/>
	<polygon points="46.2,70.7 46,70.6 6.1,66.6 6.4,64.5 46.1,68.5 65.5,63.8 66,65.9 	"/>
</g>
</svg>
