<?xml version="1.0" encoding="utf-8"?>
<!-- Generator: Adobe Illustrator 18.1.1, SVG Export Plug-In . SVG Version: 6.00 Build 0)  -->
<svg version="1.1" id="Layer_1" xmlns="http://www.w3.org/2000/svg" xmlns:xlink="http://www.w3.org/1999/xlink" x="0px" y="0px"
	 viewBox="0 0 72 72" enable-background="new 0 0 72 72" xml:space="preserve">
<circle stroke="#000000" cx="42.6" cy="56.4" r="5"/>
<circle stroke="#000000" cx="42.6" cy="43" r="5"/>
<circle stroke="#000000" cx="42.6" cy="29.6" r="5"/>
<path stroke="#000000" d="M47.6,16.2c0,2.8-2.2,5-5,5c-2.8,0-5-2.2-5-5c0-2.8,2.2-5,5-5C45.3,11.2,47.6,13.5,47.6,16.2z"/>
<circle stroke="#000000" cx="55.5" cy="43" r="5"/>
<circle stroke="#000000" cx="55.5" cy="29.6" r="5"/>
<circle stroke="#000000" cx="29.5" cy="56.4" r="5"/>
<circle stroke="#000000" cx="29.5" cy="43" r="5"/>
<circle stroke="#000000" cx="29.5" cy="29.6" r="5"/>
<circle stroke="#000000" cx="29.5" cy="16.2" r="5"/>
<circle stroke="#000000" cx="16.5" cy="43" r="5"/>
<circle stroke="#000000" cx="16.5" cy="29.6" r="5"/>
<path fill="none" stroke="#000000" stroke-width="3.959" d="M69.7,36c0,18.6-15.1,33.7-33.7,33.7C17.5,69.7,2.4,54.6,2.4,36
	c0-18.6,15.1-33.7,33.7-33.7C54.6,2.4,69.7,17.5,69.7,36z"/>
</svg>
