<?xml version="1.0" encoding="utf-8"?>
<!-- Generator: Adobe Illustrator 18.1.1, SVG Export Plug-In . SVG Version: 6.00 Build 0)  -->
<svg version="1.1" id="Layer_1" xmlns="http://www.w3.org/2000/svg" xmlns:xlink="http://www.w3.org/1999/xlink" x="0px" y="0px"
	 viewBox="0 0 72 72" enable-background="new 0 0 72 72" xml:space="preserve">
<path d="M71.5,36.3c0-10.4-4.6-19.7-11.8-26.1l0.3-0.2l-1-0.4c-6.1-5.2-14-8.3-22.6-8.3c-1.1,0-2.1,0.1-3.2,0.1l0-0.1
	c0,0-0.1,0-0.1,0.1c-13,1.2-24,9.6-28.9,21.2l-1.2-0.5l0.7,1.8c-1.5,3.8-2.3,8-2.3,12.4c0,1.5,0.1,3,0.3,4.4l-0.5,0.8
	C1.5,41.7,1.7,41.8,2,42c2.7,16.6,17.2,29.3,34.5,29.3c3.9,0,7.7-0.7,11.2-1.9l0.1,0.1c0-0.1,0.1-0.1,0.1-0.2
	C61.7,64.6,71.5,51.5,71.5,36.3z M66.8,49.2c0,0-1.2,1-2.9,2.4l-4.5-5.4c5.3-2.8,8.3-5.4,10.3-7.5c-0.3,3.8-1.2,7.4-2.6,10.8
	L66.8,49.2z M25,30.3l-10.8-4c1-2.7,2.4-5.2,3.9-7.4c3.7,1.2,8.2,2.5,12.5,3c-0.5,3.7-0.9,8.4-1,14.1c-2.3-0.3-4.8-0.8-7.8-1.5
	c-1.1-0.3-2.1-0.6-3.2-1L25,30.3z M32.3,22.1c0.3,0,0.6,0.1,0.9,0.1c0.6,0,1.2,0,1.8,0c5.2,0,11.2-1,16.5-2.4
	c1.3,3.5,2.2,7.3,2.7,11.4c-1.3,0.4-2.5,0.7-3.6,1L50,32.3c-1,0.3-1.9,0.5-2.8,0.7l-1.7-10L34.7,36.3c-1.1,0-2.2,0-3.4-0.1
	C31.4,30.5,31.8,25.8,32.3,22.1z M49.7,15.4c0.4,0.9,0.8,1.8,1.2,2.7c-3.2,0.9-6.6,1.6-9.9,2L49.7,15.4z M33.3,38l-0.2,0.3l16.1,6.3
	l-1.2-7.3c1-0.2,2-0.5,3.2-0.8l0.6-0.1c0.9-0.2,1.9-0.5,2.9-0.8c0,0.7,0,1.4,0,2.1l1.3,0c0,1.4-0.1,2.8-0.2,4.1l-0.6-0.7l-6.7,7.7
	c-4.9,1.4-10.4,1.7-16.4,1c-0.5-4.3-0.7-8.3-0.7-11.9C32,38,32.7,38,33.3,38z M32.6,51.6c1.8,0.2,3.6,0.3,5.3,0.3
	c3,0,5.9-0.3,8.6-0.9l-3.6,4.2l8.3-1.2c-0.6,2-1.3,3.8-2.1,5.4c-3.8,1.1-9.2,2.2-14.8,2.1c-0.7-2.6-1.4-5.6-1.9-8.8l0.8-0.3
	L32.6,51.6z M57.2,43.6c0.3-1.9,0.4-3.9,0.4-5.9l1.3,0c0-1.1,0-2.3-0.1-3.6c2.4-1,5-2.3,8.1-4.3l-0.7-1.1c1-0.5,1.8-1,2.4-1.3
	c0.8,2.7,1.2,5.6,1.2,8.6c-2,2.3-4.8,5.5-11.5,8.9L57.2,43.6z M65.2,27.2l-0.7-1c-2.3,1.5-4.3,2.6-6.2,3.4
	c-0.5-3.9-1.5-7.6-2.7-11.1c2.7-0.9,5-2,6.8-3c2.4,3,4.3,6.5,5.6,10.2C67.4,26,66.5,26.6,65.2,27.2z M44.6,5.5l-4.2,14.6
	c-2.5,0.3-4.9,0.4-7.1,0.3c-0.2,0-0.5,0-0.7,0c0.4-2.4,0.7-4.2,1-5.5l0.1-0.4c0.8-3.8,2.8-9.6,3.5-11.4c1.9,0,3.8,0.2,5.7,0.6
	l-0.1,0.1C43.3,4.3,44,4.9,44.6,5.5z M31.9,14.1l-0.1,0.4c-0.3,1.3-0.6,3.2-1,5.7c-3.9-0.5-8.1-1.6-11.7-2.8
	c2.8-3.7,5.9-6.6,8.6-8.7l-0.8-1c3.1-2.5,5.8-4,6.7-4.6c0.5,0,1-0.1,1.6-0.1C34.4,5.3,32.7,10.5,31.9,14.1z M16.4,34.5
	c1.6,0.7,3.3,1.3,4.9,1.7c3.2,0.8,5.8,1.3,8.3,1.6c0,3.2,0.2,6.7,0.5,10.5L23,38.5l-2.3,7.6c-0.3-0.1-0.6-0.2-0.8-0.2
	c-1.8-0.6-4.2-1.6-6.6-2.7c-0.4-2.2-0.6-4.4-0.6-6.8L16.4,34.5z M18.6,50c0.3,0.1,0.6,0.2,0.9,0.2l-1.8,5.9
	c-1.3-2.3-2.4-4.9-3.2-7.7C16,49.1,17.4,49.6,18.6,50z M18.4,57.4l12.3-4.1c0.4,3,1.1,5.7,1.7,8.2c-0.9-0.1-1.9-0.2-2.8-0.3
	c-4.4-0.8-7.8-1.7-10.6-2.7C18.8,58.1,18.6,57.7,18.4,57.4z M29.4,62.8c1.2,0.2,2.4,0.3,3.6,0.4c0.8,2.8,1.7,5,2.2,6.2
	c-1.2,0-2.5-0.2-3.7-0.3l0.2-0.5c-4.2-1.6-7.8-4.3-10.8-7.8C23.3,61.6,26,62.2,29.4,62.8z M34.8,63.3c0.1,0,0.3,0,0.4,0
	c4.6,0,9.1-0.8,12.6-1.7c-0.8,1.2-1.5,2.4-2.3,3.5c-0.5,0.7-0.9,1.3-1.3,2l0.7,0.4c-0.2,0.3-0.4,0.6-0.7,0.9l0.1,0.1
	c-2.3,0.6-4.8,0.9-7.3,0.9C36.7,68.6,35.8,66.3,34.8,63.3z M55.8,53.4l6.8-1c-2.3,1.7-5.2,3.7-8,5C55.1,56.2,55.5,54.9,55.8,53.4z
	 M61.3,14.1c-1.6,0.9-3.8,1.9-6.3,2.7c-0.5-1.2-1-2.3-1.5-3.4l4.6-2.4C59.3,12,60.3,13,61.3,14.1z M46,4.5c-0.1-0.1-0.1-0.1-0.2-0.2
	C48,4.9,50.1,5.8,52,6.8L46,4.5z M29.3,3.8c-1,0.7-2.2,1.6-3.5,2.6l-0.8-1c-3.2,2.5-6.9,6.1-10.1,10.6c-1.8-0.7-3.1-1.2-3.5-1.4
	C16,9.2,22.2,5.3,29.3,3.8z M10.8,15.1L10.4,16c0.2,0.1,1.5,0.6,3.5,1.4c-1.4,2.2-2.7,4.7-3.8,7.3l-4.2-1.6
	C7.2,20.3,8.8,17.6,10.8,15.1z M4.4,27.5c0.3,0.2,0.7,0.5,1.1,0.7L9.3,38l1.7-0.8c0.1,1.7,0.2,3.4,0.5,5c-3.2-1.6-6.1-3.3-7.8-4.3
	l-0.3,0.4c0-0.7-0.1-1.4-0.1-2C3.3,33.2,3.7,30.3,4.4,27.5z M12.4,47.5c0.9,3.5,2.2,6.8,3.9,9.7c-3.7-1.8-6.5-4.1-10-7
	c-1-2.2-1.8-4.6-2.3-7C6.4,44.5,9.5,46.1,12.4,47.5z M8.6,54.3c2.8,2.2,5.6,4,9.3,5.5c2.3,3.3,5.1,6.1,8.4,8.1
	C19,65.6,12.7,60.7,8.6,54.3z M49.7,66.8c1.4-2,2.8-4.3,4-7c4.3-1.7,9.1-5.1,11.9-7.3C62,58.8,56.4,63.9,49.7,66.8z"/>
</svg>
