<?xml version="1.0" encoding="utf-8"?>
<!-- Generator: Adobe Illustrator 18.1.1, SVG Export Plug-In . SVG Version: 6.00 Build 0)  -->
<svg version="1.1" xmlns="http://www.w3.org/2000/svg" xmlns:xlink="http://www.w3.org/1999/xlink" x="0px" y="0px"
	 viewBox="0 0 72 72" enable-background="new 0 0 72 72" xml:space="preserve">
<g id="Layer_2" display="none">
	<rect display="inline" fill="#7F7F7F" width="72" height="72"/>
</g>
<g id="Layer_1">
	<g>
		<path d="M56.6,36.8c-0.1,10.8-8.4,19.6-18.9,20.6v13c17.7-1,31.8-15.7,31.9-33.6H56.6z"/>
		<path d="M23.7,19.6l1.9,4.9l5.2-8.1c1.6-0.4,3.3-0.6,5-0.7c9.4,0,17.3,6.2,20,14.7c0.4,1.4,0.7,2.8,0.9,4.3h13
			c-1-17.8-15.8-31.9-33.8-31.9c-3,0-5.9,0.4-8.6,1.1L16.5,1l2.4,6.3c-10.1,5.9-17,16.8-17,29.3c0,18.6,15.1,33.7,33.6,33.8V57.5
			C24.1,57.4,14.8,48,14.8,36.6c0-4.3,1.3-8.3,3.6-11.7C19.8,22.8,21.6,21,23.7,19.6z M17.1,23.1c-0.3,0.4-0.6,0.8-0.8,1.2
			c-0.1,0.1-0.1,0.2-0.2,0.3c-0.8,1.3-1.5,2.7-2,4.1c0,0.1-0.1,0.3-0.1,0.4c-0.2,0.4-0.3,0.9-0.4,1.3c0,0.2-0.1,0.3-0.1,0.5
			c-0.4,1.4-0.6,2.9-0.7,4.5c0,0.1,0,0.3,0,0.4H4c0.3-11.7,6.9-21.8,16.5-27.1l1-0.5l-1.6-4.1l3.5,1c0,0,0,0,0,0l3.7,1c0,0,0,0,0,0
			l1.6,0.4l0,0l4.8,1.3c0,0-6.1,9.6-6,9.6L26,19.8l-1.2-3.1l-0.1,0l-1,0.4c-0.3,0.1-0.5,0.3-0.7,0.5l-0.1,0.1
			c-0.3,0.2-0.7,0.4-1,0.7c0,0,0,0,0,0c-1.7,1.3-3.3,2.9-4.6,4.6C17.2,23,17.2,23,17.1,23.1z"/>
	</g>
</g>
</svg>
