<?xml version="1.0" encoding="utf-8"?>
<!-- Generator: Adobe Illustrator 18.1.1, SVG Export Plug-In . SVG Version: 6.00 Build 0)  -->
<svg version="1.1" xmlns="http://www.w3.org/2000/svg" xmlns:xlink="http://www.w3.org/1999/xlink" x="0px" y="0px"
	 viewBox="0 0 72 72" enable-background="new 0 0 72 72" xml:space="preserve">
<g id="Layer_2" display="none">
	<rect display="inline" fill="#828282" width="72" height="72"/>
	
		<rect x="-99.5" y="39.6" transform="matrix(-0.7071 0.7071 -0.7071 -0.7071 -131.6111 142.3006)" display="inline" fill="#FFFFFF" width="8.5" height="8.5"/>
	
		<rect x="-114.5" y="24.7" transform="matrix(-0.7071 0.7071 -0.7071 -0.7071 -167.5687 127.5458)" display="inline" fill="#FFFFFF" width="8.6" height="8.6"/>
</g>
<g id="Layer_1">
	<g>
		<path d="M63.3,35.6l-0.1-0.2L46.2,19v-0.1v-0.6l-0.3-0.1l-0.1-0.2L28.2,1l-0.9,0.4L26.4,1L8.7,18.1l-0.1,0.2l-0.3,0.1v0.6v16.7
			v0.5l0.3,0.1l0.1,0.2L26,53.2v0.4l0.3,0.1l0.1,0.2L44,71l0.8-0.3l0.8,0.3l17.6-17.1l0.1-0.2l0.3-0.1v-0.6V36.3v-0.6L63.3,35.6z
			 M46,22l0.2,0.2l14.3,13.8l-7,7l-7.3-7.3l0,0L46,35.5V22z M28.6,4.6l14.5,14.1l-7,7l-7.5-7.5V4.6z M43.7,22v11.2v1.6v0.6v0.1
			L43.2,36L36.1,43l-0.2-0.2l-6.8-6.8l7.2-6.9l0.8-0.8l0.8-0.8L43.7,22z M26,4.6v13.5l-7.5,7.5l-7-7L26,4.6z M26,50L11.5,35.9
			l-0.8-0.8V35v-1.7V21.2l6.1,6.1l0.8,0.8l0.8,0.8l7.5,7.6V50z M20.1,27.3l7.2-7.2l7.2,7.2l-7.2,7.2L20.1,27.3z M43.7,67.4
			L29.1,53.3L28.8,53l-0.4-0.4v-0.1v-0.6v-1V38.6l0.2,0.2l5.7,5.7l0.2,0.2l0.6,0.6l0.2,0.2l0.6,0.6l0.2,0.2l7.5,7.5V67.4z
			 M44.8,51.8l-7.1-7.1l7.1-7.1l7.1,7.1L44.8,51.8z M61.3,50.8v1.7v0.1l-0.8,0.8L46,67.4V53.9l7.5-7.5l0.8-0.8l0.8-0.8l6.1-6.1V50.8
			z"/>
	</g>
</g>
</svg>
